<?xml version="1.0" standalone="no"?><!DOCTYPE svg PUBLIC "-//W3C//DTD SVG 1.1//EN" "http://www.w3.org/Graphics/SVG/1.1/DTD/svg11.dtd"><svg class="icon" width="200px" height="200.00px" viewBox="0 0 1024 1024" version="1.1" xmlns="http://www.w3.org/2000/svg"><path d="M908.984 224.728H743.752v-14.504c0-64.144-52.2-116.336-116.352-116.336H396.568c-64.144 0-116.32 52.192-116.32 116.336v14.504H114.984C51.584 224.728 0 276.248 0 339.568v475.704c0 63.312 51.584 114.832 114.984 114.832h794c63.432 0 115.016-51.52 115.016-114.832V339.568c0-63.32-51.584-114.84-115.016-114.84z m54.336 590.544c0 29.856-24.384 54.16-54.336 54.16h-794c-29.952 0-54.304-24.296-54.304-54.16V339.568c0-29.864 24.352-54.16 54.304-54.16h195.608a30.32 30.32 0 0 0 30.336-30.336v-44.84a55.696 55.696 0 0 1 55.64-55.656h230.832c30.696 0 55.672 24.96 55.672 55.656v44.84a30.32 30.32 0 0 0 30.344 30.336h195.568c29.952 0 54.336 24.296 54.336 54.16v475.704z" fill="#e6e6e6" /><path d="M512 350.616c-106.84 0-193.736 86.896-193.736 193.704 0 106.816 86.896 193.712 193.736 193.712 106.832 0 193.736-86.896 193.736-193.712 0-106.808-86.904-193.704-193.736-193.704z m0 326.736c-73.36 0-133.056-59.672-133.056-133.032 0-73.352 59.696-133.024 133.056-133.024s133.064 59.672 133.064 133.024c0 73.36-59.704 133.032-133.064 133.032z" fill="#e6e6e6" /></svg>