<?xml version="1.0" standalone="no"?><!DOCTYPE svg PUBLIC "-//W3C//DTD SVG 1.1//EN" "http://www.w3.org/Graphics/SVG/1.1/DTD/svg11.dtd"><svg class="icon" width="200px" height="200.00px" viewBox="0 0 1024 1024" version="1.1" xmlns="http://www.w3.org/2000/svg"><path d="M224 224v96a32 32 0 0 1-64 0V192a32 32 0 0 1 32-32h128a32 32 0 0 1 0 64zM800 224h-96a32 32 0 0 1 0-64h128a32 32 0 0 1 32 32v128a32 32 0 0 1-64 0zM224 800h96a32 32 0 0 1 0 64H192a32 32 0 0 1-32-32v-128a32 32 0 0 1 64 0zM800 800v-96a32 32 0 0 1 64 0v128a32 32 0 0 1-32 32h-128a32 32 0 0 1 0-64zM288 544a32 32 0 0 1 0-64h448a32 32 0 0 1 0 64z" fill="#dbdbdb" /></svg>