<?xml version="1.0" standalone="no"?><!DOCTYPE svg PUBLIC "-//W3C//DTD SVG 1.1//EN" "http://www.w3.org/Graphics/SVG/1.1/DTD/svg11.dtd"><svg class="icon" width="200px" height="200.00px" viewBox="0 0 1024 1024" version="1.1" xmlns="http://www.w3.org/2000/svg"><path d="M405.2 746.9C217 746.9 63.9 593.8 63.9 405.6S217 64.2 405.2 64.2s341.3 153.1 341.3 341.3-153.1 341.4-341.3 341.4z m0-614.4c-150.6 0-273.1 122.5-273.1 273.1s122.5 273.1 273.1 273.1 273.1-122.5 273.1-273.1-122.5-273.1-273.1-273.1z" fill="#e6e6e6" /><path d="M911.3 959.2L576.2 624.1c-0.8-0.8-0.8-2.1 0-2.8l45.4-45.4c0.8-0.8 2.1-0.8 2.8 0L959.5 911c0.8 0.8 0.8 2.1 0 2.8l-45.4 45.4c-0.8 0.8-2 0.8-2.8 0z" fill="#e6e6e6" /></svg>